<?xml version="1.0" standalone="no"?><!DOCTYPE svg PUBLIC "-//W3C//DTD SVG 1.1//EN" "http://www.w3.org/Graphics/SVG/1.1/DTD/svg11.dtd"><svg t="1701575190235" class="icon" viewBox="0 0 1024 1024" version="1.1" xmlns="http://www.w3.org/2000/svg" p-id="4554" xmlns:xlink="http://www.w3.org/1999/xlink" width="200" height="200"><path d="M514.128911 512m-507.584708 0a507.584708 507.584708 0 1 0 1015.169416 0 507.584708 507.584708 0 1 0-1015.169416 0Z" fill="#FDBF5E" p-id="4555"></path><path d="M514.128911 512m-282.42324 0a282.42324 282.42324 0 1 0 564.84648 0 282.42324 282.42324 0 1 0-564.84648 0Z" fill="#FFFFFF" p-id="4556"></path><path d="M165.036607 512H133.338126c0-11.043342 0-22.29119 1.636051-33.334532l31.698481 3.272102c0 9.407291-1.636051 20.450633-1.636051 30.06243z m6.339697-60.329367l-31.698481-4.703646c1.636051-11.043342 4.703646-22.29119 6.339696-31.698481l30.06243 7.975747c-1.431544 7.77124-3.067595 19.019089-4.703645 28.42638z m14.315443-58.693316l-30.062431-11.043342c3.272101-11.043342 7.975747-20.655139 12.679393-30.062431l28.630886 12.679393c-3.272101 9.407291-6.544203 19.019089-11.247848 28.42638z m25.358784-55.421216l-26.994835-15.951493c4.703646-9.611797 11.043342-19.019089 17.383038-28.630886l25.358785 17.383038c-4.703646 9.611797-9.407291 19.223595-15.746988 27.199341z m34.970583-49.286025l-23.927241-20.655139c6.339696-7.975747 14.315443-17.383038 22.29119-23.722734l22.29119 22.29119c-6.339696 6.339696-14.315443 14.110937-20.655139 22.086683z m42.741822-42.741823l-20.655139-23.92724c7.975747-6.339696 17.383038-14.315443 25.358785-20.655139l19.019089 25.358785c-7.77124 6.544203-15.746987 12.883899-23.722735 19.223594z m49.286026-34.970582l-15.951494-26.994835c9.611797-4.703646 19.019089-11.043342 28.630886-15.951494l14.315443 28.630886c-7.975747 4.908152-17.587544 9.611797-26.994835 14.315443z m55.421215-25.358785l-11.043342-30.06243c9.611797-3.272101 20.655139-7.975747 31.698481-9.611797l7.975747 30.06243c-9.611797 1.636051-19.019089 4.908152-28.630886 9.611797z m58.693316-15.951493l-6.339696-31.698481c11.043342-1.636051 22.29119-3.272101 33.334532-4.703646l3.272101 31.698481c-11.247848 1.636051-20.655139 1.636051-30.266937 4.703646zM550.531037 891.154734l-3.272101-31.698481c9.611797-1.636051 20.655139-1.636051 30.062431-4.703646l6.339696 31.698481c-12.474886 1.636051-23.518228 3.067595-33.130026 4.703646z m65.033013-11.043342l-7.975747-30.06243c9.611797-3.272101 19.019089-6.339696 28.630886-9.611798l11.043342 30.062431c-11.043342 3.272101-22.086684 6.339696-31.698481 9.611797z m61.965418-23.92724l-14.315443-28.630886c9.611797-4.703646 17.383038-9.611797 26.994835-14.315444l15.951494 26.994836c-9.611797 6.544203-19.223595 11.247848-28.630886 15.951494z m57.057265-33.334532l-19.019088-25.358785c7.975747-6.339696 15.951494-12.679392 23.722734-19.019088l20.655139 23.92724c-7.975747 7.77124-17.383038 14.110937-25.358785 20.450633z m49.286026-42.741823l-22.29119-22.29119c6.339696-6.339696 14.315443-14.315443 20.655139-22.291189l23.722734 20.655139c-6.339696 7.975747-14.315443 15.951494-22.086683 23.92724z m42.741822-50.717569l-25.358784-17.383038c6.339696-7.975747 11.043342-17.383038 15.951493-25.358785l26.994836 15.951494c-4.908152 9.202785-11.247848 18.814582-17.587545 26.790329z m33.334532-57.057266l-28.630886-12.679393c4.703646-9.611797 7.975747-19.019089 11.043342-28.630886l30.06243 11.043342c-3.067595 9.611797-7.77124 20.655139-12.474886 30.266937z m22.29119-61.965418l-30.06243-7.975747c3.272101-9.611797 4.703646-19.019089 6.339696-30.06243l31.698481 4.703646c-1.636051 11.043342-4.908152 22.29119-7.975747 33.334531z m11.043342-65.033012l-31.698481-3.272102c1.636051-9.611797 1.636051-20.655139 1.63605-30.06243h31.698481c0 11.043342 0 22.29119-1.63605 33.334532z" fill="#193651" p-id="4557"></path><path d="M309.418076 762.724759c36.402127 36.402127 163.400557-30.06243 350.523847-215.754177l-134.76967-134.769671c-185.691747 188.554835-253.792354 313.917215-215.754177 350.523848z" fill="#E1E6E9" p-id="4558"></path><path d="M336.412911 789.719595c-15.951494 0-28.630886-4.703646-38.038177-14.315443-69.736658-69.736658 126.99843-284.059291 214.118126-372.815038 3.272101-3.272101 6.339696-4.703646 11.043342-4.703646 4.703646 0 7.975747 1.636051 11.043342 4.703646l134.769671 134.769671c3.272101 3.272101 4.703646 6.339696 4.703645 11.043342s-1.636051 7.975747-4.703645 11.043341c-147.244557 146.017519-267.903291 230.274126-332.936304 230.274127z m187.123291-353.795949c-187.123291 192.031443-223.729924 295.102633-203.074785 315.757771 3.272101 3.272101 9.611797 4.703646 15.951494 4.703646 41.310278 0 142.745418-55.625721 299.806278-209.414481l-112.682987-111.046936z" fill="#193651" p-id="4559"></path><path d="M1005.966632 66.176203c-33.334532-33.334532-228.433569 106.343291-406.149569 272.811443l133.338126 133.338126c166.468152-179.35205 306.145974-372.815038 272.811443-406.149569z" fill="#E1E6E9" p-id="4560"></path><path d="M732.950683 488.277266c-4.703646 0-7.975747-1.636051-11.043342-4.703646l-133.338126-133.338126c-3.272101-3.272101-4.703646-7.975747-4.703646-11.043342 0-4.703646 1.636051-7.975747 4.703646-11.043342 146.017519-136.610228 333.14081-282.627747 401.445923-282.627746 11.043342 0 19.019089 3.272101 25.358785 9.611797 65.033013 65.033013-258.496 412.489265-272.811443 428.236253 0 1.636051-4.703646 4.908152-9.611797 4.908152z m-109.410886-149.28962l109.410886 109.410886c180.783595-195.099038 272.811443-347.456253 261.768101-371.178987h-3.272101c-49.081519 0-207.573924 114.319038-367.906886 261.768101z" fill="#193651" p-id="4561"></path><path d="M732.950683 472.325772l-133.338127-133.338126c-22.29119 20.655139-44.377873 42.741823-66.669063 65.033012l-9.611797 9.611798 134.76967 134.769671 9.611798-9.611798c22.495696-22.086684 44.58238-44.173367 65.237519-66.464557z" fill="#FDBF5E" p-id="4562"></path><path d="M658.510379 564.35362c-4.703646 0-7.975747-1.636051-11.043342-4.703645l-134.974177-134.974177c-6.339696-6.339696-6.339696-15.951494 0-22.29119l9.611798-9.611798c20.655139-20.655139 42.741823-42.741823 66.669063-65.033012 6.339696-6.339696 15.951494-6.339696 22.29119 0l133.338126 133.338126c6.339696 6.339696 6.339696 15.951494 0 22.29119-22.29119 23.722734-44.377873 46.013924-65.033012 66.669063l-9.611798 9.611798c-3.476608 3.067595-6.544203 4.703646-11.247848 4.703645z m-112.682987-150.721164l112.682987 112.682987c17.383038-17.383038 33.334532-34.970582 52.35362-53.989671l-111.046936-111.046936c-19.019089 17.383038-36.606633 34.970582-53.989671 52.35362z" fill="#193651" p-id="4563"></path><path d="M15.951494 926.125316s80.984506-31.698481 153.788759-180.783595c26.994835-55.625721 76.076354-100.003595 138.041772-107.979341 53.989671-6.339696 112.682987 14.315443 100.003595 123.726329-28.630886 236.409316-391.834126 165.036607-391.834126 165.036607z" fill="#F16051" p-id="4564"></path><path d="M131.702076 951.484101c-66.669063 0-117.386633-9.611797-120.658734-11.043342-6.339696 0-11.043342-6.339696-11.043342-12.679392s3.272101-14.315443 9.611797-15.951494c0 0 76.076354-31.698481 144.381469-173.012354 31.698481-65.033013 87.324202-107.979342 150.721164-115.750582 39.674228-4.703646 73.008759 4.703646 93.663899 28.630886 22.29119 23.722734 30.06243 61.965418 23.722734 112.682987-14.315443 120.454228-117.386633 187.123291-290.398987 187.123291z m-71.372709-34.970582c19.019089 1.636051 44.377873 3.272101 71.372709 3.272101 109.410886 0 242.749012-28.630886 258.496-161.764506 4.703646-41.310278 0-69.736658-15.951494-87.324203-14.315443-15.951494-36.402127-22.29119-66.669063-17.383038-52.35362 6.339696-100.003595 42.741823-125.36238 98.367544-42.537316 90.391797-90.187291 139.473316-121.885772 164.832102z" fill="#193651" p-id="4565"></path><path d="M176.079949 865.795949c17.383038-25.358785 36.402127-55.625721 53.989671-92.027848 19.019089-38.038177 50.71757-65.033013 85.688152-69.736658h9.611797c7.975747 0 11.043342 1.636051 11.043342 1.63605s7.975747 11.043342 3.272101 47.649975c-7.975747 66.464557-63.601468 104.502734-163.605063 112.478481z" fill="#FFFFFF" p-id="4566"></path></svg>