<?xml version="1.0" standalone="no"?><!DOCTYPE svg PUBLIC "-//W3C//DTD SVG 1.1//EN" "http://www.w3.org/Graphics/SVG/1.1/DTD/svg11.dtd"><svg t="1701575274197" class="icon" viewBox="0 0 1024 1024" version="1.1" xmlns="http://www.w3.org/2000/svg" p-id="8914" xmlns:xlink="http://www.w3.org/1999/xlink" width="200" height="200"><path d="M512 744c-114.128 0-216.416-61.84-282.144-113.712-70.88-55.952-114.336-111.024-116.16-113.344a8 8 0 0 1 0-9.872c1.808-2.32 45.28-57.392 116.16-113.344C295.584 341.84 397.872 280 512 280s216.416 61.84 282.144 113.712c70.88 55.952 114.336 111.024 116.16 113.344a8 8 0 0 1 0 9.872c-1.808 2.32-45.28 57.392-116.16 113.344C728.416 682.16 626.128 744 512 744zM130.336 512C157.664 544.672 319.712 728 512 728c192.4 0 354.336-183.312 381.664-216C866.336 479.328 704.288 296 512 296 319.6 296 157.664 479.312 130.336 512z" fill="#263238" p-id="8915"></path><path d="M512 744c-127.92 0-232-104.08-232-232S384.08 280 512 280 744 384.08 744 512 639.92 744 512 744z m0-448c-119.104 0-216 96.896-216 216S392.896 728 512 728 728 631.104 728 512 631.104 296 512 296z" fill="#263238" p-id="8916"></path><path d="M688 520a8 8 0 0 1-8-8c0-92.64-75.36-168-168-168a8 8 0 0 1 0-16c101.456 0 184 82.544 184 184a8 8 0 0 1-8 8z" fill="#263238" p-id="8917"></path><path d="M592 640H432l80-160z" fill="#FF5252" p-id="8918"></path><path d="M592 648H432a7.968 7.968 0 0 1-7.152-11.568l80-160c2.72-5.408 11.6-5.408 14.32 0l80 160a8.048 8.048 0 0 1-0.336 7.776 8.096 8.096 0 0 1-6.832 3.792z m-147.056-16h134.128L512 497.888 444.944 632z" fill="#263238" p-id="8919"></path><path d="M483.376 465.696a32.048 32.048 0 0 1 57.248-0.016l66.096 132.192A127.328 127.328 0 0 0 640 512a128 128 0 0 0-256 0c0 33.088 12.672 63.152 33.28 85.872l66.096-132.176z" fill="#FFD740" p-id="8920"></path><path d="M606.72 605.888a7.968 7.968 0 0 1-5.92-13.376A119.728 119.728 0 0 0 632 512c0-66.176-53.824-120-120-120s-120 53.824-120 120c0 29.712 11.072 58.32 31.2 80.512a8 8 0 1 1-11.84 10.752A135.712 135.712 0 0 1 376 512c0-74.992 61.008-136 136-136s136 61.008 136 136a135.712 135.712 0 0 1-35.36 91.264 8.016 8.016 0 0 1-5.92 2.624zM272 80h-32a8 8 0 0 1 0-16h32a8 8 0 0 1 0 16zM32 320a8 8 0 0 1-8-8v-160C24 103.488 63.488 64 112 64h96a8 8 0 0 1 0 16H112a72.08 72.08 0 0 0-72 72v160a8 8 0 0 1-8 8zM784 960h-32a8 8 0 0 1 0-16h32a8 8 0 0 1 0 16zM912 960h-96a8 8 0 0 1 0-16h96c39.696 0 72-32.304 72-72v-160a8 8 0 0 1 16 0v160c0 48.512-39.488 88-88 88zM992 320a8 8 0 0 1-8-8v-160C984 112.304 951.696 80 912 80H752a8 8 0 0 1 0-16h160c48.512 0 88 39.488 88 88v160a8 8 0 0 1-8 8zM272 960H112a88.112 88.112 0 0 1-88-88v-160a8 8 0 0 1 16 0v160C40 911.696 72.304 944 112 944h160a8 8 0 0 1 0 16zM768 224h-64a8 8 0 0 1 0-16h64a8 8 0 0 1 0 16z" fill="#263238" p-id="8921"></path><path d="M736 256a8 8 0 0 1-8-8v-64a8 8 0 0 1 16 0v64a8 8 0 0 1-8 8zM880 296h-64a8 8 0 0 1 0-16h64a8 8 0 0 1 0 16z" fill="#263238" p-id="8922"></path><path d="M848 328a8 8 0 0 1-8-8v-64a8 8 0 0 1 16 0v64a8 8 0 0 1-8 8z" fill="#263238" p-id="8923"></path></svg>