<?xml version="1.0" standalone="no"?><!DOCTYPE svg PUBLIC "-//W3C//DTD SVG 1.1//EN" "http://www.w3.org/Graphics/SVG/1.1/DTD/svg11.dtd"><svg t="1701593876794" class="icon" viewBox="0 0 1024 1024" version="1.1" xmlns="http://www.w3.org/2000/svg" p-id="4032" xmlns:xlink="http://www.w3.org/1999/xlink" width="200" height="200"><path d="M702.280719 36.807689c-262.397909-105.061538-560.338865 22.458343-665.432394 284.888244-105.125522 262.461892 22.458343 560.43484 284.888244 665.496378s560.370857-22.458343 665.464386-284.888244c105.125522-262.461892-22.490335-560.370857-284.920236-665.496378zM345.538574 927.815267C116.284317 835.998393 4.440488 574.816178 96.22537 345.52993S449.25645 4.399852 678.542699 96.248717c229.254257 91.784882 341.098086 352.999088 249.313204 582.253345-91.848866 229.286249-353.03108 341.098086-582.317329 249.313205z m190.320063-475.208307a64.015876 64.015876 0 0 0-47.636002 118.78608 64.015876 64.015876 0 0 0 47.636002-118.78608z m-35.734999 89.12955a32.087918 32.087918 0 0 1-17.819512-41.621516 32.087918 32.087918 0 0 1 41.621517-17.819512 31.991942 31.991942 0 0 1-23.802005 59.441028z m83.243033-207.883639a191.951652 191.951652 0 1 0-142.684061 356.390234 191.951652 191.951652 0 0 0 142.684061-356.390234z m-118.882057 296.949206a128.127728 128.127728 0 0 1-71.246055-166.358099 128.127728 128.127728 0 0 1 166.326107-71.246055 128.191712 128.191712 0 0 1 71.310039 166.390091 128.127728 128.127728 0 0 1-166.390091 71.214063z m285.176172-23.642045h-0.063984a255.231714 255.231714 0 0 1-136.157706 139.676818c-0.223944 0.095976-0.351911 0.351911-0.67183 0.47988a15.995971 15.995971 0 0 1-12.604825-29.400595 223.303755 223.303755 0 0 0 119.77783-122.657106v0.031992a15.995971 15.995971 0 1 1 29.720515 11.869011z m109.828337 26.745263a16.027963 16.027963 0 0 1 8.925751 20.794762 382.687611 382.687611 0 0 1-204.268549 209.483237c-0.383903 0.15996-0.671831 0.511871-1.055734 0.703823a15.995971 15.995971 0 1 1-12.604826-29.400595 350.791644 350.791644 0 0 0 188.208595-192.687467 15.995971 15.995971 0 0 1 20.794763-8.89376z m-59.409037-23.770013a16.027963 16.027963 0 0 1 8.925752 20.794762 318.863686 318.863686 0 0 1-170.197131 174.548036c-0.351911 0.191952-0.543863 0.479879-0.863783 0.639839a15.995971 15.995971 0 1 1-12.540841-29.432587h-0.063984a286.583817 286.583817 0 0 0 153.945225-157.65629 15.995971 15.995971 0 0 1 20.794762-8.89376zM432.332713 285.129143a16.027963 16.027963 0 0 1-8.413881 21.050698 223.143796 223.143796 0 0 0-119.745839 122.593122h-0.031992a15.995971 15.995971 0 1 1-29.688522-11.901003h0.031992a255.231714 255.231714 0 0 1 136.157705-139.676819c0.223944-0.095976 0.383903-0.351911 0.671831-0.447887a15.995971 15.995971 0 0 1 21.018706 8.381889z m-50.387309-117.634371a16.027963 16.027963 0 0 1-8.381889 21.018706 350.951604 350.951604 0 0 0-188.208595 192.655475 15.995971 15.995971 0 1 1-29.688522-11.932994 382.687611 382.687611 0 0 1 204.26855-209.483237c0.319919-0.15996 0.607847-0.511871 0.99175-0.67183a16.027963 16.027963 0 0 1 21.018706 8.41388z m16.763778 79.787904v0.095976A286.80776 286.80776 0 0 0 244.763957 405.034942a15.995971 15.995971 0 1 1-29.656531-11.932995 318.959662 318.959662 0 0 1 170.197132-174.612019c0.319919-0.127968 0.511871-0.447887 0.83179-0.575855a15.995971 15.995971 0 1 1 12.604826 29.368603z" p-id="4033"></path></svg>