<?xml version="1.0" standalone="no"?><!DOCTYPE svg PUBLIC "-//W3C//DTD SVG 1.1//EN" "http://www.w3.org/Graphics/SVG/1.1/DTD/svg11.dtd"><svg t="1701514526630" class="icon" viewBox="0 0 1024 1024" version="1.1" xmlns="http://www.w3.org/2000/svg" p-id="5196" xmlns:xlink="http://www.w3.org/1999/xlink" width="200" height="200"><path d="M901.625 926.725c0 12.8-5.125 25.0875-14.3375 34.3-9.225 9.2125-21.5 14.3375-34.3125 14.3375H170.4875c-12.8 0-25.6-5.125-34.3-14.3375-9.2125-9.225-14.3375-21.5-14.3375-34.3V48.6375c0-12.8 5.1125-25.6 14.3375-34.3C144.8875 5.125 157.7 0 170.4875 0H589.3125c12.8 0 25.6 5.125 34.8125 14.3375l263.675 263.6875c9.2125 9.2125 14.3375 21.5 14.3375 34.8125v613.8875h-0.5125z" fill="#EBECF0" p-id="5197"></path><path d="M901.625 926.725v48.6375c0 12.8-5.125 25.6-14.3375 34.3-9.225 9.225-21.5 14.3375-34.3125 14.3375H170.4875c-27.1375 0-48.6375-22.0125-48.6375-48.6375v-48.6375c0 12.8 5.1125 25.0875 14.3375 34.3 9.2125 9.2125 21.5 14.3375 34.3 14.3375h682.5c27.1375 0 48.6375-22.0125 48.6375-48.6375z" fill="#C1C7D0" p-id="5198"></path><path d="M24.0625 536.575h975.3625v243.7125c0 27.1375-22.0125 48.6375-48.6375 48.6375H73.2125c-12.8 0-25.6-5.1125-34.3-14.3375C29.6875 805.375 24.575 793.0875 24.575 779.775V536.575H24.0625z" fill="#F80C0F" p-id="5199"></path><path d="M121.85 536.575v-97.8L24.0625 536.575h97.7875z m779.775 0l1.025-97.8 97.275 97.8h-98.3z" fill="#C10013" p-id="5200"></path><path d="M901.625 312.8375v6.65H637.9375c-27.1375 0-48.6375-22.0125-48.6375-48.6375V0c12.8 0 25.6 5.125 34.8125 14.3375L888.3125 278.025c8.7 9.2125 13.825 21.5 13.3125 34.8125z" fill="#C1C7D0" p-id="5201"></path><path d="M235.25 702.9125c0 55.425-24.85 75.2375-72.55 75.2375-9.875 0-19.5875-0.6375-28.725-2.05v-37.9875c5.6375 0.9125 14.25 1.3 20.7875 1.3 20.5875 0 31.95-8.1375 31.95-33.9125V574.975h48.5375v127.9375zM322.325 728.7875l-17.3625 45.15h-49.6625l80.1375-198.9625h61.9125l84.2375 198.9625h-52.2125l-18.4875-45.15h-88.55z m75.0625-38.7c-18.5125-45.6-27.5375-68.8375-32.3-84.0375h-0.2875c-4.45 14.8875-15.0125 45.1375-29.975 84.0375h62.5625zM542.25 773.9375l-81.0875-198.9625h53.425l35.0375 94.7375c13.2125 35.8375 18.8125 55.1 22.275 67.7875h0.5625c3.1125-11.4875 5.875-19.9125 24.525-71.4l33.8625-91.125h51.65l-82.5 198.9625h-57.7625zM730.25 728.7875l-17.3625 45.15h-49.6625l80.1375-198.9625h61.9125l84.2375 198.9625h-52.2125l-18.4875-45.15h-88.55zM805.3125 690.0875c-18.5125-45.6-27.5375-68.8375-32.3-84.0375h-0.2875c-4.45 14.8875-15.0125 45.1375-29.975 84.0375H805.3125z" fill="#FFFFFF" p-id="5202"></path></svg>