<?xml version="1.0" standalone="no"?><!DOCTYPE svg PUBLIC "-//W3C//DTD SVG 1.1//EN" "http://www.w3.org/Graphics/SVG/1.1/DTD/svg11.dtd"><svg t="1701575238557" class="icon" viewBox="0 0 1024 1024" version="1.1" xmlns="http://www.w3.org/2000/svg" p-id="7750" xmlns:xlink="http://www.w3.org/1999/xlink" width="200" height="200"><path d="M957.568 369.408a32 32 0 0 1 0 45.248c-130.752 131.2-263.808 181.44-395.392 147.456 33.792 131.392-16.32 264.32-147.2 395.136a32 32 0 0 1-45.184-45.248c130.88-130.88 167.872-254.72 115.84-376.896l-1.152-2.56-2.56-1.088C364.16 481.216 244.8 513.856 119.04 633.6l-14.016 13.696a32 32 0 1 1-45.248-45.248c130.816-130.816 263.744-180.992 395.264-147.2-34.048-131.584 16.192-264.64 147.328-395.456a32 32 0 0 1 45.184 45.376C516.48 235.456 479.424 359.232 531.456 481.28l1.408 2.944 2.88 1.344c117.76 50.24 237.056 17.472 362.56-102.4l14.016-13.696a32 32 0 0 1 45.248-0.064z m-542.336 388.288a32 32 0 0 1-40.832 48.96l-4.416-3.712-155.008-155.008a32 32 0 0 1 40.832-48.96l4.48 3.712 154.944 155.008z m38.784-116.352a32 32 0 0 1-40.832 48.96l-4.416-3.712-77.44-77.44a32 32 0 0 1 40.832-48.96l4.48 3.712 77.44 77.44z m232.768-232.768a32 32 0 0 1-40.832 48.96l-4.48-3.712-77.376-77.44a32 32 0 0 1 40.832-48.896l4.48 3.648 77.376 77.44z m116.352-38.784a32 32 0 0 1-40.832 48.96l-4.416-3.712L602.88 260.032a32 32 0 0 1 40.832-48.96l4.48 3.712 154.944 155.008z" fill="#000000" p-id="7751"></path></svg>