<?xml version="1.0" standalone="no"?><!DOCTYPE svg PUBLIC "-//W3C//DTD SVG 1.1//EN" "http://www.w3.org/Graphics/SVG/1.1/DTD/svg11.dtd"><svg t="1701514624824" class="icon" viewBox="0 0 1024 1024" version="1.1" xmlns="http://www.w3.org/2000/svg" p-id="12908" xmlns:xlink="http://www.w3.org/1999/xlink" width="200" height="200"><path d="M0 0h1024v1024H0z" fill="#FFFFFF" p-id="12909"></path><path d="M310.624 278.624a32 32 0 1 0-45.248-45.248l45.248 45.248z m-188.128 142.88l-22.624-22.656 22.624 22.656z m142.88 369.12a32 32 0 0 0 45.248-45.248l-45.248 45.248z m-142.88-188.128l-22.624 22.624 22.624-22.624z m642.24-363.008a32 32 0 1 0-45.248 45.248l45.248-45.248z m136.768 182.016l-22.624 22.624 22.624-22.624z m-182.016 317.76a32 32 0 0 0 45.248 45.248l-45.248-45.248z m182.016-136.768l22.624 22.624-22.624-22.624zM658.688 104.32a32 32 0 1 0-61.792-16.64l61.76 16.64z m-285.792 815.36a32 32 0 1 0 61.76 16.64l-61.76-16.64zM265.376 233.376L99.84 398.848l45.248 45.28 165.504-165.504-45.248-45.248z m45.248 512L145.12 579.84l-45.248 45.28 165.504 165.472 45.248-45.248zM99.872 398.848a160 160 0 0 0 0 226.272l45.248-45.248a96 96 0 0 1 0-135.744l-45.248-45.28z m619.616-114.112l159.36 159.36 45.28-45.248-159.36-159.36-45.28 45.248z m45.248 499.776l159.36-159.36-45.216-45.28-159.392 159.36 45.248 45.28z m114.144-340.384a96 96 0 0 1 0 135.744l45.248 45.28a160 160 0 0 0 0-226.304l-45.28 45.28zM596.832 87.68l-224 832 61.824 16.64 224-832-61.792-16.64z" fill="#000000" p-id="12910"></path></svg>