<?xml version="1.0" standalone="no"?><!DOCTYPE svg PUBLIC "-//W3C//DTD SVG 1.1//EN" "http://www.w3.org/Graphics/SVG/1.1/DTD/svg11.dtd"><svg t="1702014965350" class="icon" viewBox="0 0 1024 1024" version="1.1" xmlns="http://www.w3.org/2000/svg" p-id="2844" xmlns:xlink="http://www.w3.org/1999/xlink" width="200" height="200"><path d="M0 0h1024v1024H0z" fill="#FFFFFF" p-id="2845"></path><path d="M320 926.4v32-32z m-224 0H64a32 32 0 0 0 32 32v-32z m0-224l-22.624-22.624A32 32 0 0 0 64 702.4h32z m784-336l22.624 22.624-22.624-22.624z m-224-224l22.624 22.624-22.624-22.624z m272 816a32 32 0 1 0 0-64v64zM560 238.4l-22.624-22.624 22.624 22.624z m224 224l22.624 22.624-22.624-22.624zM320 894.4H96v64h224v-64z m-192 32v-224H64v224h64zM902.624 119.776a190.4 190.4 0 0 0-269.248 0l45.248 45.248a126.4 126.4 0 0 1 178.752 0l45.248-45.248z m0 269.248a190.4 190.4 0 0 0 0-269.248l-45.248 45.248a126.4 126.4 0 0 1 0 178.752l45.248 45.248zM928 894.4H320v64h608v-64zM118.624 725.024l464-464-45.248-45.248-464 464 45.248 45.248z m464-464l96-96-45.248-45.248-96 96 45.248 45.248z m-240 688l464-464-45.248-45.248-464 464 45.248 45.248z m464-464l96-96-45.248-45.248-96 96 45.248 45.248z m-269.248-224l224 224 45.248-45.248-224-224-45.248 45.248z" fill="#000000" p-id="2846"></path></svg>