<?xml version="1.0" standalone="no"?><!DOCTYPE svg PUBLIC "-//W3C//DTD SVG 1.1//EN" "http://www.w3.org/Graphics/SVG/1.1/DTD/svg11.dtd"><svg t="1701575217943" class="icon" viewBox="0 0 1024 1024" version="1.1" xmlns="http://www.w3.org/2000/svg" p-id="6621" xmlns:xlink="http://www.w3.org/1999/xlink" width="200" height="200"><path d="M708.749117 648.861399c0 64.692919 53.132212 117.329413 118.436636 117.329413s118.436636-52.636495 118.436636-117.329413l0-126.35364c0-64.6893-53.132212-117.329413-118.436636-117.329413s-118.436636 52.636495-118.436636 117.329413L708.749117 648.861399zM763.415519 522.504141c0-34.830473 28.610488-63.17682 63.773852-63.17682s63.773852 28.342728 63.773852 63.17682l0 126.35364c0 34.834092-28.610488 63.17682-63.773852 63.17682s-63.773852-28.342728-63.773852-63.17682L763.415519 522.504141zM1018.510926 648.861399c0-14.947505-12.233724-27.076297-27.329583-27.076297-15.099477 0-27.333201 12.128792-27.333201 27.076297 0 74.650686-61.302502 135.377866-136.65877 135.377866s-136.65877-60.72718-136.65877-135.377866c0-14.947505-12.233724-27.076297-27.333201-27.076297s-27.329583 12.128792-27.329583 27.076297c0 95.297131 71.430332 174.155986 163.988353 187.366671l0 74.364834-63.773852 0c-15.099477 0-27.329583 12.128792-27.329583 27.076297 0 14.947505 12.233724 27.076297 27.329583 27.076297l182.210488 0c15.099477 0 27.329583-12.128792 27.329583-27.076297 0-14.947505-12.233724-27.076297-27.329583-27.076297l-63.773852 0 0-74.364834C947.080594 823.017385 1018.510926 744.154912 1018.510926 648.861399zM654.086332 522.504141c0-14.473498 2.171025-28.436806 5.973936-41.723477-12.613654-3.574954-25.57829-6.715703-38.857724-9.443958 58.368-40.894869 96.65764-108.138742 96.65764-184.193357 0-124.414191-102.175661-225.630982-227.765823-225.630982S262.332155 162.729159 262.332155 287.14335c0 78.421032 40.641583 147.557314 102.11053 188.007124C158.933484 530.084636 7.236749 716.257244 7.236749 936.96c0 14.951124 12.233724 27.076297 27.329583 27.076297s27.333201-12.125173 27.333201-27.076297c0-233.89535 192.085032-424.185668 428.194827-424.185668 60.933428 0 115.440622 7.757795 163.991972 22.129979L654.086332 522.504141zM316.99494 287.14335c0-94.551746 77.653936-171.482007 173.09942-171.482007 95.449102 0 173.09942 76.926643 173.09942 171.482007s-77.650318 171.478389-173.09942 171.478389C394.648876 458.625357 316.99494 381.698714 316.99494 287.14335z" p-id="6622"></path></svg>